<svg xmlns="http://www.w3.org/2000/svg" viewBox="0 0 256 366">
  <defs>
    <linearGradient id="astroGradient1" x1="0%" y1="0%" x2="100%" y2="100%">
      <stop offset="0%" style="stop-color:#ff5d01"/>
      <stop offset="100%" style="stop-color:#000014"/>
    </linearGradient>
    <linearGradient id="astroGradient2" x1="0%" y1="0%" x2="100%" y2="100%">
      <stop offset="0%" style="stop-color:#ff1639"/>
      <stop offset="100%" style="stop-color:#000014"/>
    </linearGradient>
  </defs>
  <path fill="url(#astroGradient1)" d="M163.008 18.929c1.944 2.413 2.935 5.67 2.935 9.21v36.636c0 1.771-.775 3.9-2.322 5.498l-10.875 11.24c-5.67 5.858-15.063 5.858-20.733 0l-10.875-11.24c-1.547-1.598-2.322-3.727-2.322-5.498V28.14c0-3.54.991-6.797 2.935-9.211C123.69 16.37 127.262 15 131.06 15s7.37 1.37 9.308 3.929h22.64z"/>
  <path fill="url(#astroGradient2)" d="M52.716 60.131c3.183 0 6.235.616 8.624 1.731 4.31 2.034 6.762 6.105 6.762 10.205v189.84c0 3.67-1.402 7.457-4.158 10.097l-49.05 47.49c-4.85 4.69-12.784 4.69-17.634 0l-49.051-47.49C-4.317 269.334-5.72 265.547-5.72 261.877V72.067c0-4.1 2.452-8.171 6.762-10.205 2.389-1.115 5.441-1.731 8.624-1.731H52.716z"/>
  <path fill="#ff5d01" d="M213.998 60.131c3.183 0 6.235.616 8.624 1.731 4.31 2.034 6.762 6.105 6.762 10.205v189.84c0 3.67-1.402 7.457-4.158 10.097l-49.05 47.49c-4.85 4.69-12.784 4.69-17.634 0l-49.051-47.49c-2.756-2.64-4.158-6.427-4.158-10.097V72.067c0-4.1 2.452-8.171 6.762-10.205 2.389-1.115 5.441-1.731 8.624-1.731h93.281z"/>
</svg>