<svg xmlns="http://www.w3.org/2000/svg" viewBox="0 0 512 512">
  <path fill="#4DB33D" d="M256 8C119.3 8 8 119.2 8 256s111.3 248 248 248 248-111.2 248-248S392.7 8 256 8zm-37.9 357.8l-13.8-110.4c3.3-2.7 6.4-5.6 9.4-8.6l17.8 113.3c-4.5 1.8-9 3.5-13.4 5.7zm75.8 0c-4.4-2.2-8.9-3.9-13.4-5.7l17.8-113.3c3 3 6.1 5.9 9.4 8.6l-13.8 110.4zm.1-142.1c-11.9-12.1-26.9-21.7-43.1-27.6-16.2-5.9-33.4-8.9-50.7-8.9s-34.5 3-50.7 8.9c-16.2 5.9-31.2 15.5-43.1 27.6-11.9 12.1-21.7 26.9-27.6 43.1-5.9 16.2-8.9 33.4-8.9 50.7s3 34.5 8.9 50.7c5.9 16.2 15.5 31.2 27.6 43.1 12.1 11.9 26.9 21.7 43.1 27.6 16.2 5.9 33.4 8.9 50.7 8.9s34.5-3 50.7-8.9c16.2-5.9 31.2-15.5 43.1-27.6 11.9-12.1 21.7-26.9 27.6-43.1 5.9-16.2 8.9-33.4 8.9-50.7s-3-34.5-8.9-50.7c-5.9-16.2-15.5-31.2-27.6-43.1z"/>
</svg>