<svg xmlns="http://www.w3.org/2000/svg" viewBox="0 0 240 234">
  <path fill="#001e36" d="M42.5 0h155C221.7 0 240 18.3 240 42.5v149c0 24.2-18.3 42.5-42.5 42.5h-155C18.3 234 0 215.7 0 191.5v-149C0 18.3 18.3 0 42.5 0z"/>
  <path fill="#31c5f0" d="M54 164.1V61.2c0-.7.3-1.1 1.1-1.1 1.7 0 3.3 0 5.6-.1 2.4-.1 4.9-.1 7.6-.2s5.6-.1 8.7-.2c3.1-.1 6.2-.1 9.4-.1 8.2 0 15.4.8 21.6 2.5 6.2 1.7 11.5 4.1 15.8 7.3s7.7 7.1 10.1 11.8c2.4 4.7 3.6 10.1 3.6 16.2 0 6.1-1.2 11.4-3.6 16s-5.7 8.5-10.1 11.7c-4.3 3.2-9.5 5.7-15.8 7.4-6.2 1.7-13.4 2.5-21.6 2.5-2.3 0-4.4 0-6.2-.1s-3.3-.1-4.4-.2v28.9c0 .7-.4 1.1-1.1 1.1H55.1c-.7.1-1.1-.3-1.1-1zM75.6 78.8v37.9c1.1.1 2.4.2 4.1.2 1.7.1 3.6.1 5.9.1 4.9 0 8.8-.9 11.9-2.7 3.1-1.8 4.6-4.7 4.6-8.6 0-4.1-1.5-7.1-4.6-8.9s-7.2-2.7-12.5-2.7c-2.4 0-4.4 0-6.2.1-1.8.2-2.8.4-3.2.6z"/>
  <path fill="#31c5f0" d="M192.6 106c-1.1-4.2-2.7-7.9-4.9-11.1-2.2-3.2-4.9-6.1-8.1-8.5-3.2-2.4-6.9-4.4-11.1-5.9-4.2-1.5-8.9-2.3-14.2-2.3-3.2 0-6.4.5-9.5 1.4s-5.9 2.3-8.4 4.1c-2.5 1.8-4.5 4.1-6.1 6.9s-2.4 6.1-2.4 9.9c0 3.2.6 5.9 1.9 8.2s2.9 4.2 4.9 5.8c2 1.6 4.3 2.9 6.8 4s5.1 2.1 7.8 3.1c2.4.9 4.6 1.8 6.6 2.8 2 1 3.7 2.1 5.1 3.3 1.4 1.2 2.5 2.5 3.2 4s1.1 3.1 1.1 5c0 4.3-1.4 7.6-4.1 9.8s-6.5 3.3-11.4 3.3c-2.3 0-4.6-.3-6.8-.8-2.2-.5-4.3-1.2-6.2-2.1-1.9-.9-3.6-1.9-5.1-3.1-1.5-1.2-2.7-2.4-3.5-3.7-.4-.6-.6-1.1-.6-1.7 0-.6.2-1.1.7-1.4l7.7-5.9c.5-.4 1.1-.5 1.6-.2.5.2.9.7 1.2 1.3.5 1 1.2 2 2.2 3.1 1 1.1 2.2 2.1 3.7 3 1.5.9 3.2 1.6 5.1 2.2 1.9.6 4 .9 6.4.9 2.4 0 4.4-.3 6.1-.8 1.7-.5 3.1-1.2 4.2-2.1s1.9-1.9 2.4-3.1.8-2.5.8-3.9c0-3.4-.7-6.1-2.1-8.3s-3.2-4-5.4-5.4c-2.2-1.4-4.6-2.5-7.3-3.5s-5.4-1.9-8-2.9c-2.1-.8-4.1-1.7-6-2.7s-3.5-2.2-4.9-3.5c-1.4-1.3-2.5-2.8-3.3-4.5-.8-1.7-1.2-3.7-1.2-6 0-2.7.5-5.2 1.6-7.5 1.1-2.3 2.6-4.3 4.6-6 2-1.7 4.4-3 7.1-4s5.8-1.5 9.2-1.5c5.2 0 9.9 1.2 14 3.7 4.1 2.5 7.1 5.8 8.9 10 .3.6.2 1.2-.1 1.7-.3.5-.8.9-1.4 1.1L192.9 107c-.6.2-1.2.1-1.7-.2-.6-.2-1-.7-1.3-1.3z"/>
</svg>