<svg xmlns="http://www.w3.org/2000/svg" viewBox="0 0 512 512">
  <path fill="#61dafb" d="M418.2 177.2c-5.4-1.8-10.8-3.5-16.2-5.1.9-3.7 1.7-7.4 2.5-11.1 12.3-59.6 4.2-107.5-23.1-123.3-26.3-15.1-69.2.6-112.6 38.4-4.3 3.7-8.5 7.6-12.5 11.5-2.7-2.6-5.5-5.2-8.3-7.7-45.5-40.4-91.1-57.4-118.4-41.5-26.2 15.2-34 60.3-23 116.7 1.1 5.6 2.3 11.1 3.7 16.7-6.4 1.8-12.7 3.8-18.6 5.9C38.3 196.2 0 225.4 0 256s38.3 59.8 94.8 81.2c5.8 2.1 11.8 4 18.1 5.8-1.4 5.7-2.6 11.4-3.7 17.1-10.5 54.1-2.7 97.8 24.9 113.2 28.1 15.7 72.6-.4 116.6-39.1 3.5-3.1 7-6.3 10.5-9.7 4.4 4.3 9 8.4 13.6 12.4 42.8 36.8 85.1 51.7 111.2 36.6 27.2-15.6 35.8-62.9 24.4-120.5-.9-4.4-1.9-8.9-3-13.5 3.2-.9 6.3-1.9 9.4-2.9 57.7-21.1 96.2-50.6 96.2-81.1s-38.5-60-96.1-81.1zM97.1 352.9c-1.3.2-2.8.5-4.5.9-18.1 3.8-32.7 2.6-41.1-3.7-8.4-6.4-11.4-25.9-4.4-53.4 1.1-4.5 2.4-9.1 3.8-13.8 5.1 1.2 10.4 2.4 15.8 3.5 3.3 6.8 6.9 13.5 10.7 20.1-3.9 2.6-7.8 5.2-11.6 7.9 6.1 21.3 15.8 31.6 30.3 31.1zM256 420.1c-18.9-7.9-38.6-20.9-58.4-39.6 19-.4 38.5-.4 57.4 0-19.8 18.7-39.5 31.8-58.6 39.9.6 0-1.1-.3.6-.3zM97.1 159.1c18.7-2.9 38-4.2 57.5-4.2-.8 2.8-1.6 5.7-2.4 8.6-5.5 1.5-10.9 3.1-16.2 4.8-2.9-3.1-5.7-6.2-8.5-9.3zM256 91.9c18.9 7.9 38.6 20.9 58.4 39.6-19 .4-38.5.4-57.4 0 19.8-18.7 39.5-31.8 58.6-39.9-.6 0 1.1.3-.6.3zM414.9 159.1c1.3-.2 2.8-.5 4.5-.9 18.1-3.8 32.7-2.6 41.1 3.7 8.4 6.4 11.4 25.9 4.4 53.4-1.1 4.5-2.4 9.1-3.8 13.8-5.1-1.2-10.4-2.4-15.8-3.5-3.3-6.8-6.9-13.5-10.7-20.1 3.9-2.6 7.8-5.2 11.6-7.9-6.1-21.3-15.8-31.6-30.3-31.1zM256 208c13.25 0 24 10.75 24 24s-10.75 24-24 24-24-10.75-24-24 10.75-24 24-24z"/>
  <circle cx="256" cy="256" r="24" fill="#61dafb"/>
</svg>